<?xml version="1.0" encoding="UTF-8" standalone="no"?>
<!DOCTYPE svg PUBLIC "-//W3C//DTD SVG 1.1//EN"
 "http://www.w3.org/Graphics/SVG/1.1/DTD/svg11.dtd">
<!-- Generated by graphviz version 2.40.1 (20161225.0304)
 -->
<!-- Title: G Pages: 1 -->
<svg width="725pt" height="2844pt"
 viewBox="0.00 0.00 724.67 2844.00" xmlns="http://www.w3.org/2000/svg" xmlns:xlink="http://www.w3.org/1999/xlink">
<g id="graph0" class="graph" transform="scale(1 1) rotate(0) translate(4 2840)">
<title>G</title>
<polygon fill="#ffffff" stroke="transparent" points="-4,4 -4,-2840 720.6667,-2840 720.6667,4 -4,4"/>
<g id="clust1" class="cluster">
<title>cluster_Global</title>
<path fill="none" stroke="#c0c0c0" d="M151.8904,-260C151.8904,-260 696.6667,-260 696.6667,-260 702.6667,-260 708.6667,-266 708.6667,-272 708.6667,-272 708.6667,-2816 708.6667,-2816 708.6667,-2822 702.6667,-2828 696.6667,-2828 696.6667,-2828 151.8904,-2828 151.8904,-2828 145.8904,-2828 139.8904,-2822 139.8904,-2816 139.8904,-2816 139.8904,-272 139.8904,-272 139.8904,-266 145.8904,-260 151.8904,-260"/>
<text text-anchor="middle" x="424.2785" y="-2815.2" font-family="Times,serif" font-size="11.00" fill="#c0c0c0">Global</text>
</g>
<g id="clust2" class="cluster">
<title>cluster_\App</title>
<path fill="none" stroke="#c0c0c0" d="M224.6794,-268C224.6794,-268 688.6667,-268 688.6667,-268 694.6667,-268 700.6667,-274 700.6667,-280 700.6667,-280 700.6667,-2340 700.6667,-2340 700.6667,-2346 694.6667,-2352 688.6667,-2352 688.6667,-2352 224.6794,-2352 224.6794,-2352 218.6794,-2352 212.6794,-2346 212.6794,-2340 212.6794,-2340 212.6794,-280 212.6794,-280 212.6794,-274 218.6794,-268 224.6794,-268"/>
<text text-anchor="middle" x="456.673" y="-2339.2" font-family="Times,serif" font-size="11.00" fill="#c0c0c0">App</text>
</g>
<g id="clust3" class="cluster">
<title>cluster_\App\Controller</title>
<path fill="none" stroke="#c0c0c0" d="M523.6667,-1004C523.6667,-1004 680.6667,-1004 680.6667,-1004 686.6667,-1004 692.6667,-1010 692.6667,-1016 692.6667,-1016 692.6667,-1388 692.6667,-1388 692.6667,-1394 686.6667,-1400 680.6667,-1400 680.6667,-1400 523.6667,-1400 523.6667,-1400 517.6667,-1400 511.6667,-1394 511.6667,-1388 511.6667,-1388 511.6667,-1016 511.6667,-1016 511.6667,-1010 517.6667,-1004 523.6667,-1004"/>
<text text-anchor="middle" x="602.1667" y="-1387.2" font-family="Times,serif" font-size="11.00" fill="#c0c0c0">Controller</text>
</g>
<g id="clust4" class="cluster">
<title>cluster_\App\DataFixtures</title>
<path fill="none" stroke="#c0c0c0" d="M232.6794,-1408C232.6794,-1408 660.6667,-1408 660.6667,-1408 666.6667,-1408 672.6667,-1414 672.6667,-1420 672.6667,-1420 672.6667,-1684 672.6667,-1684 672.6667,-1690 666.6667,-1696 660.6667,-1696 660.6667,-1696 232.6794,-1696 232.6794,-1696 226.6794,-1696 220.6794,-1690 220.6794,-1684 220.6794,-1684 220.6794,-1420 220.6794,-1420 220.6794,-1414 226.6794,-1408 232.6794,-1408"/>
<text text-anchor="middle" x="446.673" y="-1683.2" font-family="Times,serif" font-size="11.00" fill="#c0c0c0">DataFixtures</text>
</g>
<g id="clust5" class="cluster">
<title>cluster_\App\Form</title>
<path fill="none" stroke="#c0c0c0" d="M525.6667,-518C525.6667,-518 678.6667,-518 678.6667,-518 684.6667,-518 690.6667,-524 690.6667,-530 690.6667,-530 690.6667,-984 690.6667,-984 690.6667,-990 684.6667,-996 678.6667,-996 678.6667,-996 525.6667,-996 525.6667,-996 519.6667,-996 513.6667,-990 513.6667,-984 513.6667,-984 513.6667,-530 513.6667,-530 513.6667,-524 519.6667,-518 525.6667,-518"/>
<text text-anchor="middle" x="602.1667" y="-983.2" font-family="Times,serif" font-size="11.00" fill="#c0c0c0">Form</text>
</g>
<g id="clust6" class="cluster">
<title>cluster_\App\Form\DataTransformer</title>
<path fill="none" stroke="#c0c0c0" d="M533.6667,-896C533.6667,-896 670.6667,-896 670.6667,-896 676.6667,-896 682.6667,-902 682.6667,-908 682.6667,-908 682.6667,-956 682.6667,-956 682.6667,-962 676.6667,-968 670.6667,-968 670.6667,-968 533.6667,-968 533.6667,-968 527.6667,-968 521.6667,-962 521.6667,-956 521.6667,-956 521.6667,-908 521.6667,-908 521.6667,-902 527.6667,-896 533.6667,-896"/>
<text text-anchor="middle" x="602.1667" y="-955.2" font-family="Times,serif" font-size="11.00" fill="#c0c0c0">DataTransformer</text>
</g>
<g id="clust7" class="cluster">
<title>cluster_\App\Repository</title>
<path fill="none" stroke="#c0c0c0" d="M537.1667,-1704C537.1667,-1704 667.1667,-1704 667.1667,-1704 673.1667,-1704 679.1667,-1710 679.1667,-1716 679.1667,-1716 679.1667,-2034 679.1667,-2034 679.1667,-2040 673.1667,-2046 667.1667,-2046 667.1667,-2046 537.1667,-2046 537.1667,-2046 531.1667,-2046 525.1667,-2040 525.1667,-2034 525.1667,-2034 525.1667,-1716 525.1667,-1716 525.1667,-1710 531.1667,-1704 537.1667,-1704"/>
<text text-anchor="middle" x="602.1667" y="-2033.2" font-family="Times,serif" font-size="11.00" fill="#c0c0c0">Repository</text>
</g>
<g id="clust8" class="cluster">
<title>cluster_\App\Security</title>
<path fill="none" stroke="#c0c0c0" d="M546.1667,-2054C546.1667,-2054 658.1667,-2054 658.1667,-2054 664.1667,-2054 670.1667,-2060 670.1667,-2066 670.1667,-2066 670.1667,-2312 670.1667,-2312 670.1667,-2318 664.1667,-2324 658.1667,-2324 658.1667,-2324 546.1667,-2324 546.1667,-2324 540.1667,-2324 534.1667,-2318 534.1667,-2312 534.1667,-2312 534.1667,-2066 534.1667,-2066 534.1667,-2060 540.1667,-2054 546.1667,-2054"/>
<text text-anchor="middle" x="602.1667" y="-2311.2" font-family="Times,serif" font-size="11.00" fill="#c0c0c0">Security</text>
</g>
<g id="clust9" class="cluster">
<title>cluster_\App\Security\Voter</title>
<path fill="none" stroke="#c0c0c0" d="M554.1667,-2062C554.1667,-2062 650.1667,-2062 650.1667,-2062 656.1667,-2062 662.1667,-2068 662.1667,-2074 662.1667,-2074 662.1667,-2284 662.1667,-2284 662.1667,-2290 656.1667,-2296 650.1667,-2296 650.1667,-2296 554.1667,-2296 554.1667,-2296 548.1667,-2296 542.1667,-2290 542.1667,-2284 542.1667,-2284 542.1667,-2074 542.1667,-2074 542.1667,-2068 548.1667,-2062 554.1667,-2062"/>
<text text-anchor="middle" x="602.1667" y="-2283.2" font-family="Times,serif" font-size="11.00" fill="#c0c0c0">Voter</text>
</g>
<g id="clust10" class="cluster">
<title>cluster_\App\Service</title>
<path fill="none" stroke="#c0c0c0" d="M547.1667,-276C547.1667,-276 657.1667,-276 657.1667,-276 663.1667,-276 669.1667,-282 669.1667,-288 669.1667,-288 669.1667,-498 669.1667,-498 669.1667,-504 663.1667,-510 657.1667,-510 657.1667,-510 547.1667,-510 547.1667,-510 541.1667,-510 535.1667,-504 535.1667,-498 535.1667,-498 535.1667,-288 535.1667,-288 535.1667,-282 541.1667,-276 547.1667,-276"/>
<text text-anchor="middle" x="602.1667" y="-497.2" font-family="Times,serif" font-size="11.00" fill="#c0c0c0">Service</text>
</g>
<g id="clust11" class="cluster">
<title>cluster_Global\Symfony</title>
<path fill="none" stroke="#c0c0c0" d="M232.9325,-2548C232.9325,-2548 376.4262,-2548 376.4262,-2548 382.4262,-2548 388.4262,-2554 388.4262,-2560 388.4262,-2560 388.4262,-2788 388.4262,-2788 388.4262,-2794 382.4262,-2800 376.4262,-2800 376.4262,-2800 232.9325,-2800 232.9325,-2800 226.9325,-2800 220.9325,-2794 220.9325,-2788 220.9325,-2788 220.9325,-2560 220.9325,-2560 220.9325,-2554 226.9325,-2548 232.9325,-2548"/>
<text text-anchor="middle" x="304.6794" y="-2787.2" font-family="Times,serif" font-size="11.00" fill="#c0c0c0">Symfony</text>
</g>
<g id="clust12" class="cluster">
<title>cluster_Global\Symfony\Component</title>
<path fill="none" stroke="#c0c0c0" d="M240.9325,-2556C240.9325,-2556 368.4262,-2556 368.4262,-2556 374.4262,-2556 380.4262,-2562 380.4262,-2568 380.4262,-2568 380.4262,-2760 380.4262,-2760 380.4262,-2766 374.4262,-2772 368.4262,-2772 368.4262,-2772 240.9325,-2772 240.9325,-2772 234.9325,-2772 228.9325,-2766 228.9325,-2760 228.9325,-2760 228.9325,-2568 228.9325,-2568 228.9325,-2562 234.9325,-2556 240.9325,-2556"/>
<text text-anchor="middle" x="304.6794" y="-2759.2" font-family="Times,serif" font-size="11.00" fill="#c0c0c0">Component</text>
</g>
<g id="clust13" class="cluster">
<title>cluster_Global\Symfony\Component\Security</title>
<path fill="none" stroke="#c0c0c0" d="M248.9325,-2564C248.9325,-2564 360.4262,-2564 360.4262,-2564 366.4262,-2564 372.4262,-2570 372.4262,-2576 372.4262,-2576 372.4262,-2732 372.4262,-2732 372.4262,-2738 366.4262,-2744 360.4262,-2744 360.4262,-2744 248.9325,-2744 248.9325,-2744 242.9325,-2744 236.9325,-2738 236.9325,-2732 236.9325,-2732 236.9325,-2576 236.9325,-2576 236.9325,-2570 242.9325,-2564 248.9325,-2564"/>
<text text-anchor="middle" x="304.6794" y="-2731.2" font-family="Times,serif" font-size="11.00" fill="#c0c0c0">Security</text>
</g>
<g id="clust14" class="cluster">
<title>cluster_Global\Symfony\Component\Security\Core</title>
<path fill="none" stroke="#c0c0c0" d="M256.9325,-2572C256.9325,-2572 352.4262,-2572 352.4262,-2572 358.4262,-2572 364.4262,-2578 364.4262,-2584 364.4262,-2584 364.4262,-2704 364.4262,-2704 364.4262,-2710 358.4262,-2716 352.4262,-2716 352.4262,-2716 256.9325,-2716 256.9325,-2716 250.9325,-2716 244.9325,-2710 244.9325,-2704 244.9325,-2704 244.9325,-2584 244.9325,-2584 244.9325,-2578 250.9325,-2572 256.9325,-2572"/>
<text text-anchor="middle" x="304.6794" y="-2703.2" font-family="Times,serif" font-size="11.00" fill="#c0c0c0">Core</text>
</g>
<g id="clust15" class="cluster">
<title>cluster_Global\Symfony\Component\Security\Core\Authorization</title>
<path fill="none" stroke="#c0c0c0" d="M264.9325,-2580C264.9325,-2580 344.4262,-2580 344.4262,-2580 350.4262,-2580 356.4262,-2586 356.4262,-2592 356.4262,-2592 356.4262,-2676 356.4262,-2676 356.4262,-2682 350.4262,-2688 344.4262,-2688 344.4262,-2688 264.9325,-2688 264.9325,-2688 258.9325,-2688 252.9325,-2682 252.9325,-2676 252.9325,-2676 252.9325,-2592 252.9325,-2592 252.9325,-2586 258.9325,-2580 264.9325,-2580"/>
<text text-anchor="middle" x="304.6794" y="-2675.2" font-family="Times,serif" font-size="11.00" fill="#c0c0c0">Authorization</text>
</g>
<g id="clust16" class="cluster">
<title>cluster_Global\Symfony\Component\Security\Core\Authorization\Voter</title>
<path fill="none" stroke="#c0c0c0" d="M272.9325,-2588C272.9325,-2588 336.4262,-2588 336.4262,-2588 342.4262,-2588 348.4262,-2594 348.4262,-2600 348.4262,-2600 348.4262,-2648 348.4262,-2648 348.4262,-2654 342.4262,-2660 336.4262,-2660 336.4262,-2660 272.9325,-2660 272.9325,-2660 266.9325,-2660 260.9325,-2654 260.9325,-2648 260.9325,-2648 260.9325,-2600 260.9325,-2600 260.9325,-2594 266.9325,-2588 272.9325,-2588"/>
<text text-anchor="middle" x="304.6794" y="-2647.2" font-family="Times,serif" font-size="11.00" fill="#c0c0c0">Voter</text>
</g>
<g id="clust17" class="cluster">
<title>cluster_Global\Doctrine</title>
<path fill="none" stroke="#c0c0c0" d="M159.8904,-2360C159.8904,-2360 449.4683,-2360 449.4683,-2360 455.4683,-2360 461.4683,-2366 461.4683,-2372 461.4683,-2372 461.4683,-2528 461.4683,-2528 461.4683,-2534 455.4683,-2540 449.4683,-2540 449.4683,-2540 159.8904,-2540 159.8904,-2540 153.8904,-2540 147.8904,-2534 147.8904,-2528 147.8904,-2528 147.8904,-2372 147.8904,-2372 147.8904,-2366 153.8904,-2360 159.8904,-2360"/>
<text text-anchor="middle" x="304.6794" y="-2527.2" font-family="Times,serif" font-size="11.00" fill="#c0c0c0">Doctrine</text>
</g>
<g id="clust18" class="cluster">
<title>cluster_Global\Doctrine\Bundle</title>
<path fill="none" stroke="#c0c0c0" d="M167.8904,-2368C167.8904,-2368 441.4683,-2368 441.4683,-2368 447.4683,-2368 453.4683,-2374 453.4683,-2380 453.4683,-2380 453.4683,-2500 453.4683,-2500 453.4683,-2506 447.4683,-2512 441.4683,-2512 441.4683,-2512 167.8904,-2512 167.8904,-2512 161.8904,-2512 155.8904,-2506 155.8904,-2500 155.8904,-2500 155.8904,-2380 155.8904,-2380 155.8904,-2374 161.8904,-2368 167.8904,-2368"/>
<text text-anchor="middle" x="304.6794" y="-2499.2" font-family="Times,serif" font-size="11.00" fill="#c0c0c0">Bundle</text>
</g>
<g id="clust19" class="cluster">
<title>cluster_Global\Doctrine\Bundle\DoctrineBundle</title>
<path fill="none" stroke="#c0c0c0" d="M175.8904,-2376C175.8904,-2376 433.4683,-2376 433.4683,-2376 439.4683,-2376 445.4683,-2382 445.4683,-2388 445.4683,-2388 445.4683,-2472 445.4683,-2472 445.4683,-2478 439.4683,-2484 433.4683,-2484 433.4683,-2484 175.8904,-2484 175.8904,-2484 169.8904,-2484 163.8904,-2478 163.8904,-2472 163.8904,-2472 163.8904,-2388 163.8904,-2388 163.8904,-2382 169.8904,-2376 175.8904,-2376"/>
<text text-anchor="middle" x="304.6794" y="-2471.2" font-family="Times,serif" font-size="11.00" fill="#c0c0c0">DoctrineBundle</text>
</g>
<g id="clust20" class="cluster">
<title>cluster_Global\Doctrine\Bundle\DoctrineBundle\Repository</title>
<path fill="none" stroke="#c0c0c0" d="M183.8904,-2384C183.8904,-2384 425.4683,-2384 425.4683,-2384 431.4683,-2384 437.4683,-2390 437.4683,-2396 437.4683,-2396 437.4683,-2444 437.4683,-2444 437.4683,-2450 431.4683,-2456 425.4683,-2456 425.4683,-2456 183.8904,-2456 183.8904,-2456 177.8904,-2456 171.8904,-2450 171.8904,-2444 171.8904,-2444 171.8904,-2396 171.8904,-2396 171.8904,-2390 177.8904,-2384 183.8904,-2384"/>
<text text-anchor="middle" x="304.6794" y="-2443.2" font-family="Times,serif" font-size="11.00" fill="#c0c0c0">Repository</text>
</g>
<!-- \\App\\Controller\\ArticleController -->
<g id="node1" class="node">
<title>\\App\\Controller\\ArticleController</title>
<polygon fill="none" stroke="#000000" points="667.6667,-1102 536.6667,-1102 536.6667,-1066 667.6667,-1066 667.6667,-1102"/>
<text text-anchor="middle" x="602.1667" y="-1081.2" font-family="Courier,monospace" font-size="11.00" fill="#000000">ArticleController</text>
</g>
<!-- AbstractController -->
<g id="node38" class="node">
<title>AbstractController</title>
<ellipse fill="none" stroke="#000000" cx="304.6794" cy="-126" rx="98.5829" ry="18"/>
<text text-anchor="middle" x="304.6794" y="-122.3" font-family="Times,serif" font-size="14.00" fill="#000000">AbstractController</text>
</g>
<!-- \\App\\Controller\\ArticleController&#45;&gt;AbstractController -->
<g id="edge1" class="edge">
<title>\\App\\Controller\\ArticleController&#45;&gt;AbstractController</title>
<path fill="none" stroke="#000000" d="M536.3239,-1074.9264C526.797,-1070.861 518.0663,-1065.1083 511.6667,-1057 387.0147,-899.0675 595.3213,-303.2137 461.4683,-153 448.5587,-138.5125 430.9266,-129.9431 412.1363,-125.1348"/>
<polygon fill="none" stroke="#000000" points="412.7422,-121.6845 402.2235,-122.9518 411.2367,-128.5207 412.7422,-121.6845"/>
</g>
<!-- \\App\\Controller\\CategoryController -->
<g id="node2" class="node">
<title>\\App\\Controller\\CategoryController</title>
<polygon fill="none" stroke="#000000" points="671.1667,-1048 533.1667,-1048 533.1667,-1012 671.1667,-1012 671.1667,-1048"/>
<text text-anchor="middle" x="602.1667" y="-1027.2" font-family="Courier,monospace" font-size="11.00" fill="#000000">CategoryController</text>
</g>
<!-- \\App\\Controller\\CategoryController&#45;&gt;AbstractController -->
<g id="edge2" class="edge">
<title>\\App\\Controller\\CategoryController&#45;&gt;AbstractController</title>
<path fill="none" stroke="#000000" d="M557.1053,-1011.9404C539.9038,-1002.6582 521.968,-989.5398 511.6667,-972 419.324,-814.77 583.1667,-288.7863 461.4683,-153 448.5171,-138.5496 430.8663,-129.997 412.0707,-125.1935"/>
<polygon fill="none" stroke="#000000" points="412.6748,-121.7427 402.1562,-123.0119 411.1704,-128.5792 412.6748,-121.7427"/>
</g>
<!-- \\App\\Controller\\CommentController -->
<g id="node3" class="node">
<title>\\App\\Controller\\CommentController</title>
<polygon fill="none" stroke="#000000" points="667.6667,-1372 536.6667,-1372 536.6667,-1336 667.6667,-1336 667.6667,-1372"/>
<text text-anchor="middle" x="602.1667" y="-1351.2" font-family="Courier,monospace" font-size="11.00" fill="#000000">CommentController</text>
</g>
<!-- \\App\\Controller\\CommentController&#45;&gt;AbstractController -->
<g id="edge3" class="edge">
<title>\\App\\Controller\\CommentController&#45;&gt;AbstractController</title>
<path fill="none" stroke="#000000" d="M536.2356,-1344.9956C526.719,-1340.9222 518.0146,-1335.1489 511.6667,-1327 431.4307,-1223.9997 547.7069,-251.0294 461.4683,-153 448.5735,-138.3422 430.8475,-129.7201 411.9409,-124.9182"/>
<polygon fill="none" stroke="#000000" points="412.4817,-121.454 401.9657,-122.7436 410.9907,-128.2934 412.4817,-121.454"/>
</g>
<!-- \\App\\Controller\\RegistrationController -->
<g id="node4" class="node">
<title>\\App\\Controller\\RegistrationController</title>
<polygon fill="none" stroke="#000000" points="684.6667,-1318 519.6667,-1318 519.6667,-1282 684.6667,-1282 684.6667,-1318"/>
<text text-anchor="middle" x="602.1667" y="-1297.2" font-family="Courier,monospace" font-size="11.00" fill="#000000">RegistrationController</text>
</g>
<!-- \\App\\Controller\\RegistrationController&#45;&gt;AbstractController -->
<g id="edge4" class="edge">
<title>\\App\\Controller\\RegistrationController&#45;&gt;AbstractController</title>
<path fill="none" stroke="#000000" d="M520.6299,-1281.9162C517.3138,-1279.3166 514.2899,-1276.3603 511.6667,-1273 435.0133,-1174.8073 543.8438,-246.4442 461.4683,-153 448.5585,-138.3555 430.8257,-129.7394 411.9172,-124.9391"/>
<polygon fill="none" stroke="#000000" points="412.4574,-121.4747 401.9414,-122.765 410.9668,-128.3142 412.4574,-121.4747"/>
</g>
<!-- \\App\\Controller\\SecurityController -->
<g id="node5" class="node">
<title>\\App\\Controller\\SecurityController</title>
<polygon fill="none" stroke="#000000" points="671.1667,-1264 533.1667,-1264 533.1667,-1228 671.1667,-1228 671.1667,-1264"/>
<text text-anchor="middle" x="602.1667" y="-1243.2" font-family="Courier,monospace" font-size="11.00" fill="#000000">SecurityController</text>
</g>
<!-- \\App\\Controller\\SecurityController&#45;&gt;AbstractController -->
<g id="edge5" class="edge">
<title>\\App\\Controller\\SecurityController&#45;&gt;AbstractController</title>
<path fill="none" stroke="#000000" d="M533.1242,-1235.5515C524.8382,-1231.5908 517.3249,-1226.2312 511.6667,-1219 438.5957,-1125.6146 539.981,-241.8592 461.4683,-153 448.5419,-138.3701 430.8017,-129.7605 411.8911,-124.9621"/>
<polygon fill="none" stroke="#000000" points="412.4306,-121.4976 401.9148,-122.7885 410.9404,-128.3372 412.4306,-121.4976"/>
</g>
<!-- \\App\\Controller\\TagController -->
<g id="node6" class="node">
<title>\\App\\Controller\\TagController</title>
<polygon fill="none" stroke="#000000" points="654.1667,-1210 550.1667,-1210 550.1667,-1174 654.1667,-1174 654.1667,-1210"/>
<text text-anchor="middle" x="602.1667" y="-1189.2" font-family="Courier,monospace" font-size="11.00" fill="#000000">TagController</text>
</g>
<!-- \\App\\Controller\\TagController&#45;&gt;AbstractController -->
<g id="edge6" class="edge">
<title>\\App\\Controller\\TagController&#45;&gt;AbstractController</title>
<path fill="none" stroke="#000000" d="M549.7933,-1187.567C535.2839,-1183.6932 520.9772,-1176.8682 511.6667,-1165 442.1777,-1076.4215 536.1185,-237.2746 461.4683,-153 448.6015,-138.4744 430.9888,-129.8879 412.204,-125.0747"/>
<polygon fill="none" stroke="#000000" points="412.8118,-121.6247 402.2928,-122.8902 411.3051,-128.4606 412.8118,-121.6247"/>
</g>
<!-- \\App\\Controller\\UserController -->
<g id="node7" class="node">
<title>\\App\\Controller\\UserController</title>
<polygon fill="none" stroke="#000000" points="657.6667,-1156 546.6667,-1156 546.6667,-1120 657.6667,-1120 657.6667,-1156"/>
<text text-anchor="middle" x="602.1667" y="-1135.2" font-family="Courier,monospace" font-size="11.00" fill="#000000">UserController</text>
</g>
<!-- \\App\\Controller\\UserController&#45;&gt;AbstractController -->
<g id="edge7" class="edge">
<title>\\App\\Controller\\UserController&#45;&gt;AbstractController</title>
<path fill="none" stroke="#000000" d="M546.5074,-1132.6146C533.1561,-1128.6094 520.2841,-1121.9532 511.6667,-1111 379.8522,-943.4558 603.0446,-312.3809 461.4683,-153 448.5813,-138.4923 430.9594,-129.9139 412.172,-125.103"/>
<polygon fill="none" stroke="#000000" points="412.779,-121.6529 402.2601,-122.9192 411.2728,-128.4889 412.779,-121.6529"/>
</g>
<!-- \\App\\DataFixtures\\AbstractBaseFixtures -->
<g id="node8" class="node">
<title>\\App\\DataFixtures\\AbstractBaseFixtures</title>
<polygon fill="none" stroke="#000000" points="380.6794,-1560 228.6794,-1560 228.6794,-1524 380.6794,-1524 380.6794,-1560"/>
<text text-anchor="start" x="270.6794" y="-1545.2" font-family="Courier,monospace" font-size="11.00" fill="#000000">«abstract»</text>
<text text-anchor="start" x="236.6794" y="-1533.2" font-family="Courier,monospace" font-size="11.00" fill="#000000">AbstractBaseFixtures</text>
</g>
<!-- Fixture -->
<g id="node39" class="node">
<title>Fixture</title>
<ellipse fill="none" stroke="#000000" cx="44.846" cy="-1542" rx="44.6926" ry="18"/>
<text text-anchor="middle" x="44.846" y="-1538.3" font-family="Times,serif" font-size="14.00" fill="#000000">Fixture</text>
</g>
<!-- \\App\\DataFixtures\\AbstractBaseFixtures&#45;&gt;Fixture -->
<g id="edge8" class="edge">
<title>\\App\\DataFixtures\\AbstractBaseFixtures&#45;&gt;Fixture</title>
<path fill="none" stroke="#000000" d="M228.4764,-1542C187.2767,-1542 137.3298,-1542 99.9337,-1542"/>
<polygon fill="none" stroke="#000000" points="99.7366,-1538.5001 89.7366,-1542 99.7365,-1545.5001 99.7366,-1538.5001"/>
</g>
<!-- \\App\\DataFixtures\\ArticleFixtures -->
<g id="node9" class="node">
<title>\\App\\DataFixtures\\ArticleFixtures</title>
<polygon fill="none" stroke="#000000" points="661.1667,-1506 543.1667,-1506 543.1667,-1470 661.1667,-1470 661.1667,-1506"/>
<text text-anchor="middle" x="602.1667" y="-1485.2" font-family="Courier,monospace" font-size="11.00" fill="#000000">ArticleFixtures</text>
</g>
<!-- \\App\\DataFixtures\\ArticleFixtures&#45;&gt;\\App\\DataFixtures\\AbstractBaseFixtures -->
<g id="edge9" class="edge">
<title>\\App\\DataFixtures\\ArticleFixtures&#45;&gt;\\App\\DataFixtures\\AbstractBaseFixtures</title>
<path fill="none" stroke="#000000" d="M543.0371,-1498.7332C499.5221,-1506.6321 439.6934,-1517.4922 390.8636,-1526.3558"/>
<polygon fill="none" stroke="#000000" points="390.1511,-1522.9279 380.937,-1528.1577 391.4013,-1529.8153 390.1511,-1522.9279"/>
</g>
<!-- DependentFixtureInterface -->
<g id="node40" class="node">
<title>DependentFixtureInterface</title>
<ellipse fill="none" stroke="#000000" cx="304.6794" cy="-180" rx="138.3755" ry="18"/>
<text text-anchor="middle" x="304.6794" y="-176.3" font-family="Times,serif" font-size="14.00" fill="#000000">DependentFixtureInterface</text>
</g>
<!-- \\App\\DataFixtures\\ArticleFixtures&#45;&gt;DependentFixtureInterface -->
<g id="edge10" class="edge">
<title>\\App\\DataFixtures\\ArticleFixtures&#45;&gt;DependentFixtureInterface</title>
<path fill="none" stroke="#000000" stroke-dasharray="1,5" d="M543.1306,-1481.6407C530.9784,-1477.5516 519.5122,-1471.0998 511.6667,-1461 426.1227,-1350.8768 553.4304,-311.823 461.4683,-207 456.0249,-200.7954 449.716,-195.6714 442.8177,-191.4603"/>
<polygon fill="none" stroke="#000000" points="444.2504,-188.2568 433.7856,-186.6019 440.9343,-194.4215 444.2504,-188.2568"/>
</g>
<!-- \\App\\DataFixtures\\CategoryFixtures -->
<g id="node10" class="node">
<title>\\App\\DataFixtures\\CategoryFixtures</title>
<polygon fill="none" stroke="#000000" points="664.6667,-1668 539.6667,-1668 539.6667,-1632 664.6667,-1632 664.6667,-1668"/>
<text text-anchor="middle" x="602.1667" y="-1647.2" font-family="Courier,monospace" font-size="11.00" fill="#000000">CategoryFixtures</text>
</g>
<!-- \\App\\DataFixtures\\CategoryFixtures&#45;&gt;\\App\\DataFixtures\\AbstractBaseFixtures -->
<g id="edge11" class="edge">
<title>\\App\\DataFixtures\\CategoryFixtures&#45;&gt;\\App\\DataFixtures\\AbstractBaseFixtures</title>
<path fill="none" stroke="#000000" d="M539.6353,-1632.0838C530.2217,-1629.1732 520.6588,-1626.0948 511.6667,-1623 458.52,-1604.7085 398.8447,-1581.0102 357.2744,-1563.9789"/>
<polygon fill="none" stroke="#000000" points="358.4811,-1560.6908 347.9013,-1560.126 355.8197,-1567.1652 358.4811,-1560.6908"/>
</g>
<!-- \\App\\DataFixtures\\CommentFixtures -->
<g id="node11" class="node">
<title>\\App\\DataFixtures\\CommentFixtures</title>
<polygon fill="none" stroke="#000000" points="661.1667,-1452 543.1667,-1452 543.1667,-1416 661.1667,-1416 661.1667,-1452"/>
<text text-anchor="middle" x="602.1667" y="-1431.2" font-family="Courier,monospace" font-size="11.00" fill="#000000">CommentFixtures</text>
</g>
<!-- \\App\\DataFixtures\\CommentFixtures&#45;&gt;\\App\\DataFixtures\\AbstractBaseFixtures -->
<g id="edge12" class="edge">
<title>\\App\\DataFixtures\\CommentFixtures&#45;&gt;\\App\\DataFixtures\\AbstractBaseFixtures</title>
<path fill="none" stroke="#000000" d="M543.0359,-1450.87C532.5383,-1454.084 521.744,-1457.5317 511.6667,-1461 458.52,-1479.2915 398.8447,-1502.9898 357.2744,-1520.0211"/>
<polygon fill="none" stroke="#000000" points="355.8197,-1516.8348 347.9013,-1523.874 358.4811,-1523.3092 355.8197,-1516.8348"/>
</g>
<!-- \\App\\DataFixtures\\CommentFixtures&#45;&gt;DependentFixtureInterface -->
<g id="edge13" class="edge">
<title>\\App\\DataFixtures\\CommentFixtures&#45;&gt;DependentFixtureInterface</title>
<path fill="none" stroke="#000000" stroke-dasharray="1,5" d="M543.0291,-1425.607C530.8811,-1421.1182 519.4422,-1414.307 511.6667,-1404 431.4979,-1297.7311 549.3523,-306.9825 461.4683,-207 456.019,-200.8006 449.7056,-195.6806 442.8039,-191.4725"/>
<polygon fill="none" stroke="#000000" points="444.2336,-188.2674 433.768,-186.6173 440.9203,-194.4337 444.2336,-188.2674"/>
</g>
<!-- \\App\\DataFixtures\\TagFixtures -->
<g id="node12" class="node">
<title>\\App\\DataFixtures\\TagFixtures</title>
<polygon fill="none" stroke="#000000" points="647.6667,-1614 556.6667,-1614 556.6667,-1578 647.6667,-1578 647.6667,-1614"/>
<text text-anchor="middle" x="602.1667" y="-1593.2" font-family="Courier,monospace" font-size="11.00" fill="#000000">TagFixtures</text>
</g>
<!-- \\App\\DataFixtures\\TagFixtures&#45;&gt;\\App\\DataFixtures\\AbstractBaseFixtures -->
<g id="edge14" class="edge">
<title>\\App\\DataFixtures\\TagFixtures&#45;&gt;\\App\\DataFixtures\\AbstractBaseFixtures</title>
<path fill="none" stroke="#000000" d="M556.6609,-1587.7398C512.6848,-1579.7572 444.952,-1567.4623 390.7815,-1557.6293"/>
<polygon fill="none" stroke="#000000" points="391.2977,-1554.1659 380.8333,-1555.8235 390.0474,-1561.0533 391.2977,-1554.1659"/>
</g>
<!-- \\App\\DataFixtures\\UserFixtures -->
<g id="node13" class="node">
<title>\\App\\DataFixtures\\UserFixtures</title>
<polygon fill="none" stroke="#000000" points="651.1667,-1560 553.1667,-1560 553.1667,-1524 651.1667,-1524 651.1667,-1560"/>
<text text-anchor="middle" x="602.1667" y="-1539.2" font-family="Courier,monospace" font-size="11.00" fill="#000000">UserFixtures</text>
</g>
<!-- \\App\\DataFixtures\\UserFixtures&#45;&gt;\\App\\DataFixtures\\AbstractBaseFixtures -->
<g id="edge15" class="edge">
<title>\\App\\DataFixtures\\UserFixtures&#45;&gt;\\App\\DataFixtures\\AbstractBaseFixtures</title>
<path fill="none" stroke="#000000" d="M553.0427,-1542C509.0122,-1542 443.4279,-1542 390.7098,-1542"/>
<polygon fill="none" stroke="#000000" points="390.6864,-1538.5001 380.6864,-1542 390.6863,-1545.5001 390.6864,-1538.5001"/>
</g>
<!-- \\App\\Form\\DataTransformer\\TagsDataTransformer -->
<g id="node14" class="node">
<title>\\App\\Form\\DataTransformer\\TagsDataTransformer</title>
<polygon fill="none" stroke="#000000" points="674.6667,-940 529.6667,-940 529.6667,-904 674.6667,-904 674.6667,-940"/>
<text text-anchor="middle" x="602.1667" y="-919.2" font-family="Courier,monospace" font-size="11.00" fill="#000000">TagsDataTransformer</text>
</g>
<!-- DataTransformerInterface -->
<g id="node42" class="node">
<title>DataTransformerInterface</title>
<ellipse fill="none" stroke="#000000" cx="304.6794" cy="-72" rx="133.7763" ry="18"/>
<text text-anchor="middle" x="304.6794" y="-68.3" font-family="Times,serif" font-size="14.00" fill="#000000">DataTransformerInterface</text>
</g>
<!-- \\App\\Form\\DataTransformer\\TagsDataTransformer&#45;&gt;DataTransformerInterface -->
<g id="edge20" class="edge">
<title>\\App\\Form\\DataTransformer\\TagsDataTransformer&#45;&gt;DataTransformerInterface</title>
<path fill="none" stroke="#000000" stroke-dasharray="1,5" d="M529.4578,-913.5996C522.6869,-910.2526 516.5477,-905.8249 511.6667,-900 397.1181,-763.2994 580.5933,-231.7316 461.4683,-99 455.5012,-92.3514 448.5392,-86.9518 440.9289,-82.5917"/>
<polygon fill="none" stroke="#000000" points="442.2219,-79.3237 431.718,-77.9383 439.0654,-85.5716 442.2219,-79.3237"/>
</g>
<!-- \\App\\Form\\ArticleType -->
<g id="node15" class="node">
<title>\\App\\Form\\ArticleType</title>
<polygon fill="none" stroke="#000000" points="647.6667,-886 556.6667,-886 556.6667,-850 647.6667,-850 647.6667,-886"/>
<text text-anchor="middle" x="602.1667" y="-865.2" font-family="Courier,monospace" font-size="11.00" fill="#000000">ArticleType</text>
</g>
<!-- AbstractType -->
<g id="node41" class="node">
<title>AbstractType</title>
<ellipse fill="none" stroke="#000000" cx="304.6794" cy="-18" rx="74.187" ry="18"/>
<text text-anchor="middle" x="304.6794" y="-14.3" font-family="Times,serif" font-size="14.00" fill="#000000">AbstractType</text>
</g>
<!-- \\App\\Form\\ArticleType&#45;&gt;AbstractType -->
<g id="edge16" class="edge">
<title>\\App\\Form\\ArticleType&#45;&gt;AbstractType</title>
<path fill="none" stroke="#000000" d="M556.5086,-865.0634C539.861,-861.5689 522.4855,-854.602 511.6667,-841 401.3364,-702.2868 579.8784,-176.8831 461.4683,-45 442.4041,-23.7667 413.1919,-15.274 385.1272,-12.6969"/>
<polygon fill="none" stroke="#000000" points="385.0739,-9.1853 374.8605,-12.0024 384.6014,-16.1694 385.0739,-9.1853"/>
</g>
<!-- \\App\\Form\\CategoryType -->
<g id="node16" class="node">
<title>\\App\\Form\\CategoryType</title>
<polygon fill="none" stroke="#000000" points="651.1667,-832 553.1667,-832 553.1667,-796 651.1667,-796 651.1667,-832"/>
<text text-anchor="middle" x="602.1667" y="-811.2" font-family="Courier,monospace" font-size="11.00" fill="#000000">CategoryType</text>
</g>
<!-- \\App\\Form\\CategoryType&#45;&gt;AbstractType -->
<g id="edge17" class="edge">
<title>\\App\\Form\\CategoryType&#45;&gt;AbstractType</title>
<path fill="none" stroke="#000000" d="M552.7628,-810.1854C537.3111,-806.4513 521.6977,-799.5525 511.6667,-787 408.4951,-657.8938 572.1593,-167.7204 461.4683,-45 442.3556,-23.8103 413.134,-15.3261 385.0755,-12.7434"/>
<polygon fill="none" stroke="#000000" points="385.0258,-9.2321 374.8116,-12.0463 384.5515,-16.216 385.0258,-9.2321"/>
</g>
<!-- \\App\\Form\\ChangePasswordType -->
<g id="node17" class="node">
<title>\\App\\Form\\ChangePasswordType</title>
<polygon fill="none" stroke="#000000" points="671.1667,-778 533.1667,-778 533.1667,-742 671.1667,-742 671.1667,-778"/>
<text text-anchor="middle" x="602.1667" y="-757.2" font-family="Courier,monospace" font-size="11.00" fill="#000000">ChangePasswordType</text>
</g>
<!-- \\App\\Form\\ChangePasswordType&#45;&gt;AbstractType -->
<g id="edge18" class="edge">
<title>\\App\\Form\\ChangePasswordType&#45;&gt;AbstractType</title>
<path fill="none" stroke="#000000" d="M532.8495,-749.2045C524.7135,-745.2854 517.3149,-740.0299 511.6667,-733 415.6519,-613.4985 564.4421,-158.5599 461.4683,-45 442.2997,-23.8608 413.0673,-15.3864 385.0158,-12.7974"/>
<polygon fill="none" stroke="#000000" points="384.9704,-9.2862 374.7553,-12.0973 384.4938,-16.27 384.9704,-9.2862"/>
</g>
<!-- \\App\\Form\\CommentType -->
<g id="node18" class="node">
<title>\\App\\Form\\CommentType</title>
<polygon fill="none" stroke="#000000" points="647.6667,-724 556.6667,-724 556.6667,-688 647.6667,-688 647.6667,-724"/>
<text text-anchor="middle" x="602.1667" y="-703.2" font-family="Courier,monospace" font-size="11.00" fill="#000000">CommentType</text>
</g>
<!-- \\App\\Form\\CommentType&#45;&gt;AbstractType -->
<g id="edge19" class="edge">
<title>\\App\\Form\\CommentType&#45;&gt;AbstractType</title>
<path fill="none" stroke="#000000" d="M556.6205,-702.9737C539.9884,-699.4668 522.5942,-692.5148 511.6667,-679 422.8064,-569.1002 556.7274,-149.4022 461.4683,-45 442.3174,-24.011 413.2415,-15.5303 385.3089,-12.8946"/>
<polygon fill="none" stroke="#000000" points="385.3112,-9.3862 375.0902,-12.1756 384.8199,-16.3689 385.3112,-9.3862"/>
</g>
<!-- \\App\\Form\\RegistrationFormType -->
<g id="node19" class="node">
<title>\\App\\Form\\RegistrationFormType</title>
<polygon fill="none" stroke="#000000" points="678.1667,-670 526.1667,-670 526.1667,-634 678.1667,-634 678.1667,-670"/>
<text text-anchor="middle" x="602.1667" y="-649.2" font-family="Courier,monospace" font-size="11.00" fill="#000000">RegistrationFormType</text>
</g>
<!-- \\App\\Form\\RegistrationFormType&#45;&gt;AbstractType -->
<g id="edge21" class="edge">
<title>\\App\\Form\\RegistrationFormType&#45;&gt;AbstractType</title>
<path fill="none" stroke="#000000" d="M526.0335,-637.3756C520.6139,-634.0315 515.7053,-629.9577 511.6667,-625 429.9579,-524.6981 549.016,-140.248 461.4683,-45 442.2407,-24.0813 413.1497,-15.6144 385.2266,-12.97"/>
<polygon fill="none" stroke="#000000" points="385.2346,-9.4619 375.0124,-12.2469 384.7402,-16.4444 385.2346,-9.4619"/>
</g>
<!-- \\App\\Form\\TagType -->
<g id="node20" class="node">
<title>\\App\\Form\\TagType</title>
<polygon fill="none" stroke="#000000" points="634.1667,-616 570.1667,-616 570.1667,-580 634.1667,-580 634.1667,-616"/>
<text text-anchor="middle" x="602.1667" y="-595.2" font-family="Courier,monospace" font-size="11.00" fill="#000000">TagType</text>
</g>
<!-- \\App\\Form\\TagType&#45;&gt;AbstractType -->
<g id="edge22" class="edge">
<title>\\App\\Form\\TagType&#45;&gt;AbstractType</title>
<path fill="none" stroke="#000000" d="M570.045,-597.0666C550.1208,-594.6728 525.7222,-588.0995 511.6667,-571 437.1054,-480.2913 541.3089,-131.0984 461.4683,-45 442.2324,-24.2564 413.2915,-15.7894 385.4904,-13.0959"/>
<polygon fill="none" stroke="#000000" points="385.548,-9.5909 375.3195,-12.3528 385.0379,-16.5723 385.548,-9.5909"/>
</g>
<!-- \\App\\Form\\UserDataType -->
<g id="node21" class="node">
<title>\\App\\Form\\UserDataType</title>
<polygon fill="none" stroke="#000000" points="651.1667,-562 553.1667,-562 553.1667,-526 651.1667,-526 651.1667,-562"/>
<text text-anchor="middle" x="602.1667" y="-541.2" font-family="Courier,monospace" font-size="11.00" fill="#000000">UserDataType</text>
</g>
<!-- \\App\\Form\\UserDataType&#45;&gt;AbstractType -->
<g id="edge23" class="edge">
<title>\\App\\Form\\UserDataType&#45;&gt;AbstractType</title>
<path fill="none" stroke="#000000" d="M552.9366,-538.2528C537.4988,-533.9828 521.8498,-526.627 511.6667,-514 380.0673,-350.8178 604.8912,-197.8944 461.4683,-45 442.1136,-24.3671 413.149,-15.9223 385.3622,-13.2155"/>
<polygon fill="none" stroke="#000000" points="385.4285,-9.711 375.1982,-12.466 384.9137,-16.6921 385.4285,-9.711"/>
</g>
<!-- \\App\\Repository\\ArticleRepository -->
<g id="node22" class="node">
<title>\\App\\Repository\\ArticleRepository</title>
<polygon fill="none" stroke="#000000" points="667.6667,-2018 536.6667,-2018 536.6667,-1982 667.6667,-1982 667.6667,-2018"/>
<text text-anchor="middle" x="602.1667" y="-1997.2" font-family="Courier,monospace" font-size="11.00" fill="#000000">ArticleRepository</text>
</g>
<!-- ServiceEntityRepository -->
<g id="node37" class="node">
<title>ServiceEntityRepository</title>
<ellipse fill="none" stroke="#000000" cx="304.6794" cy="-2410" rx="124.5782" ry="18"/>
<text text-anchor="middle" x="304.6794" y="-2406.3" font-family="Times,serif" font-size="14.00" fill="#c0c0c0">ServiceEntityRepository</text>
</g>
<!-- \\App\\Repository\\ArticleRepository&#45;&gt;ServiceEntityRepository -->
<g id="edge24" class="edge">
<title>\\App\\Repository\\ArticleRepository&#45;&gt;ServiceEntityRepository</title>
<path fill="none" stroke="#000000" d="M565.8274,-2018.0534C548.0506,-2028.1117 527.1949,-2041.8643 511.6667,-2058 412.7427,-2160.7941 341.4421,-2319.485 315.463,-2382.6776"/>
<polygon fill="none" stroke="#000000" points="312.2065,-2381.3944 311.6853,-2391.9764 318.6918,-2384.0291 312.2065,-2381.3944"/>
</g>
<!-- \\App\\Repository\\CategoryRepository -->
<g id="node23" class="node">
<title>\\App\\Repository\\CategoryRepository</title>
<polygon fill="none" stroke="#000000" points="671.1667,-1964 533.1667,-1964 533.1667,-1928 671.1667,-1928 671.1667,-1964"/>
<text text-anchor="middle" x="602.1667" y="-1943.2" font-family="Courier,monospace" font-size="11.00" fill="#000000">CategoryRepository</text>
</g>
<!-- \\App\\Repository\\CategoryRepository&#45;&gt;ServiceEntityRepository -->
<g id="edge25" class="edge">
<title>\\App\\Repository\\CategoryRepository&#45;&gt;ServiceEntityRepository</title>
<path fill="none" stroke="#000000" d="M532.7605,-1959.9416C525.1316,-1963.378 517.8881,-1967.6613 511.6667,-1973 379.0234,-2086.8242 325.2238,-2304.5628 309.7592,-2381.8954"/>
<polygon fill="none" stroke="#000000" points="306.2966,-2381.3665 307.8272,-2391.8501 313.1684,-2382.7001 306.2966,-2381.3665"/>
</g>
<!-- \\App\\Repository\\CommentRepository -->
<g id="node24" class="node">
<title>\\App\\Repository\\CommentRepository</title>
<polygon fill="none" stroke="#000000" points="667.6667,-1910 536.6667,-1910 536.6667,-1874 667.6667,-1874 667.6667,-1910"/>
<text text-anchor="middle" x="602.1667" y="-1889.2" font-family="Courier,monospace" font-size="11.00" fill="#000000">CommentRepository</text>
</g>
<!-- \\App\\Repository\\CommentRepository&#45;&gt;ServiceEntityRepository -->
<g id="edge26" class="edge">
<title>\\App\\Repository\\CommentRepository&#45;&gt;ServiceEntityRepository</title>
<path fill="none" stroke="#000000" d="M536.2053,-1904.0779C527.2652,-1907.7944 518.7475,-1912.6519 511.6667,-1919 366.4945,-2049.1495 320.0627,-2297.7993 308.1859,-2381.6139"/>
<polygon fill="none" stroke="#000000" points="304.699,-2381.2806 306.8179,-2391.6614 311.6351,-2382.2251 304.699,-2381.2806"/>
</g>
<!-- \\App\\Repository\\TagRepository -->
<g id="node25" class="node">
<title>\\App\\Repository\\TagRepository</title>
<polygon fill="none" stroke="#000000" points="654.1667,-1856 550.1667,-1856 550.1667,-1820 654.1667,-1820 654.1667,-1856"/>
<text text-anchor="middle" x="602.1667" y="-1835.2" font-family="Courier,monospace" font-size="11.00" fill="#000000">TagRepository</text>
</g>
<!-- \\App\\Repository\\TagRepository&#45;&gt;ServiceEntityRepository -->
<g id="edge27" class="edge">
<title>\\App\\Repository\\TagRepository&#45;&gt;ServiceEntityRepository</title>
<path fill="none" stroke="#000000" d="M550.0503,-1844.9305C536.2313,-1848.9165 522.2349,-1855.1767 511.6667,-1865 353.681,-2011.8495 315.2886,-2291.8895 306.8588,-2381.6001"/>
<polygon fill="none" stroke="#000000" points="303.3506,-2381.5385 305.9539,-2391.8085 310.3233,-2382.1567 303.3506,-2381.5385"/>
</g>
<!-- \\App\\Repository\\UserDataRepository -->
<g id="node26" class="node">
<title>\\App\\Repository\\UserDataRepository</title>
<polygon fill="none" stroke="#000000" points="671.1667,-1802 533.1667,-1802 533.1667,-1766 671.1667,-1766 671.1667,-1802"/>
<text text-anchor="middle" x="602.1667" y="-1781.2" font-family="Courier,monospace" font-size="11.00" fill="#000000">UserDataRepository</text>
</g>
<!-- \\App\\Repository\\UserDataRepository&#45;&gt;ServiceEntityRepository -->
<g id="edge28" class="edge">
<title>\\App\\Repository\\UserDataRepository&#45;&gt;ServiceEntityRepository</title>
<path fill="none" stroke="#000000" d="M533.0798,-1796.8737C525.2123,-1800.4853 517.823,-1805.1015 511.6667,-1811 340.6749,-1974.8299 310.8947,-2286.5794 305.7461,-2381.7251"/>
<polygon fill="none" stroke="#000000" points="302.237,-2381.826 305.2431,-2391.9854 309.2286,-2382.1688 302.237,-2381.826"/>
</g>
<!-- \\App\\Repository\\UserRepository -->
<g id="node27" class="node">
<title>\\App\\Repository\\UserRepository</title>
<polygon fill="none" stroke="#000000" points="657.6667,-1748 546.6667,-1748 546.6667,-1712 657.6667,-1712 657.6667,-1748"/>
<text text-anchor="middle" x="602.1667" y="-1727.2" font-family="Courier,monospace" font-size="11.00" fill="#000000">UserRepository</text>
</g>
<!-- \\App\\Repository\\UserRepository&#45;&gt;ServiceEntityRepository -->
<g id="edge29" class="edge">
<title>\\App\\Repository\\UserRepository&#45;&gt;ServiceEntityRepository</title>
<path fill="none" stroke="#000000" d="M546.3907,-1737.5487C533.675,-1741.5675 521.1373,-1747.6893 511.6667,-1757 417.9053,-1849.1786 331.6928,-2269.2881 309.9388,-2382.0657"/>
<polygon fill="none" stroke="#000000" points="306.48,-2381.5191 308.0367,-2391.9989 313.3551,-2382.8357 306.48,-2381.5191"/>
</g>
<!-- PasswordUpgraderInterface -->
<g id="node43" class="node">
<title>PasswordUpgraderInterface</title>
<ellipse fill="none" stroke="#000000" cx="304.6794" cy="-234" rx="142.9746" ry="18"/>
<text text-anchor="middle" x="304.6794" y="-230.3" font-family="Times,serif" font-size="14.00" fill="#000000">PasswordUpgraderInterface</text>
</g>
<!-- \\App\\Repository\\UserRepository&#45;&gt;PasswordUpgraderInterface -->
<g id="edge30" class="edge">
<title>\\App\\Repository\\UserRepository&#45;&gt;PasswordUpgraderInterface</title>
<path fill="none" stroke="#000000" stroke-dasharray="1,5" d="M546.5689,-1722.0266C533.3822,-1717.5743 520.5759,-1710.6748 511.6667,-1700 499.5816,-1685.5199 335.5338,-464.3037 308.4524,-262.1855"/>
<polygon fill="none" stroke="#000000" points="311.8953,-261.5248 307.0985,-252.0781 304.9573,-262.4543 311.8953,-261.5248"/>
</g>
<!-- \\App\\Security\\Voter\\ArticleVoter -->
<g id="node28" class="node">
<title>\\App\\Security\\Voter\\ArticleVoter</title>
<polygon fill="none" stroke="#000000" points="651.1667,-2268 553.1667,-2268 553.1667,-2232 651.1667,-2232 651.1667,-2268"/>
<text text-anchor="middle" x="602.1667" y="-2247.2" font-family="Courier,monospace" font-size="11.00" fill="#000000">ArticleVoter</text>
</g>
<!-- Voter -->
<g id="node36" class="node">
<title>Voter</title>
<ellipse fill="none" stroke="#000000" cx="304.6794" cy="-2614" rx="35.9954" ry="18"/>
<text text-anchor="middle" x="304.6794" y="-2610.3" font-family="Times,serif" font-size="14.00" fill="#c0c0c0">Voter</text>
</g>
<!-- \\App\\Security\\Voter\\ArticleVoter&#45;&gt;Voter -->
<g id="edge31" class="edge">
<title>\\App\\Security\\Voter\\ArticleVoter&#45;&gt;Voter</title>
<path fill="none" stroke="#000000" d="M591.8189,-2268.0019C569.9523,-2305.4172 516.5145,-2393.621 461.4683,-2460 419.4818,-2510.6305 362.9439,-2562.906 330.492,-2591.6516"/>
<polygon fill="none" stroke="#000000" points="327.977,-2589.2026 322.784,-2598.4375 332.6025,-2594.4566 327.977,-2589.2026"/>
</g>
<!-- \\App\\Security\\Voter\\CategoryVoter -->
<g id="node29" class="node">
<title>\\App\\Security\\Voter\\CategoryVoter</title>
<polygon fill="none" stroke="#000000" points="654.1667,-2214 550.1667,-2214 550.1667,-2178 654.1667,-2178 654.1667,-2214"/>
<text text-anchor="middle" x="602.1667" y="-2193.2" font-family="Courier,monospace" font-size="11.00" fill="#000000">CategoryVoter</text>
</g>
<!-- \\App\\Security\\Voter\\CategoryVoter&#45;&gt;Voter -->
<g id="edge32" class="edge">
<title>\\App\\Security\\Voter\\CategoryVoter&#45;&gt;Voter</title>
<path fill="none" stroke="#000000" d="M549.9752,-2201.6495C535.8238,-2205.5926 521.6689,-2212.1506 511.6667,-2223 438.6858,-2302.1622 513.2342,-2365.5905 461.4683,-2460 429.9657,-2517.4537 370.1718,-2567.126 334.2206,-2593.6021"/>
<polygon fill="none" stroke="#000000" points="332.1048,-2590.8129 326.0606,-2599.5145 336.212,-2596.4813 332.1048,-2590.8129"/>
</g>
<!-- \\App\\Security\\Voter\\CommentVoter -->
<g id="node30" class="node">
<title>\\App\\Security\\Voter\\CommentVoter</title>
<polygon fill="none" stroke="#000000" points="651.1667,-2160 553.1667,-2160 553.1667,-2124 651.1667,-2124 651.1667,-2160"/>
<text text-anchor="middle" x="602.1667" y="-2139.2" font-family="Courier,monospace" font-size="11.00" fill="#000000">CommentVoter</text>
</g>
<!-- \\App\\Security\\Voter\\CommentVoter&#45;&gt;Voter -->
<g id="edge33" class="edge">
<title>\\App\\Security\\Voter\\CommentVoter&#45;&gt;Voter</title>
<path fill="none" stroke="#000000" d="M553.0166,-2146.5421C537.7731,-2150.3472 522.2234,-2157.1045 511.6667,-2169 424.5518,-2267.1624 522.3759,-2343.7454 461.4683,-2460 431.06,-2518.0403 370.8923,-2567.5122 334.5763,-2593.7928"/>
<polygon fill="none" stroke="#000000" points="332.4497,-2591.0103 326.3296,-2599.6587 336.5071,-2596.7144 332.4497,-2591.0103"/>
</g>
<!-- \\App\\Security\\Voter\\TagVoter -->
<g id="node31" class="node">
<title>\\App\\Security\\Voter\\TagVoter</title>
<polygon fill="none" stroke="#000000" points="637.6667,-2106 566.6667,-2106 566.6667,-2070 637.6667,-2070 637.6667,-2106"/>
<text text-anchor="middle" x="602.1667" y="-2085.2" font-family="Courier,monospace" font-size="11.00" fill="#000000">TagVoter</text>
</g>
<!-- \\App\\Security\\Voter\\TagVoter&#45;&gt;Voter -->
<g id="edge34" class="edge">
<title>\\App\\Security\\Voter\\TagVoter&#45;&gt;Voter</title>
<path fill="none" stroke="#000000" d="M566.3064,-2089.7239C547.3094,-2092.584 525.1748,-2099.369 511.6667,-2115 410.3524,-2232.236 531.5633,-2321.8134 461.4683,-2460 431.9067,-2518.2782 371.7227,-2567.5065 335.1218,-2593.7093"/>
<polygon fill="none" stroke="#000000" points="332.9684,-2590.9448 326.8017,-2599.5601 336.995,-2596.6708 332.9684,-2590.9448"/>
</g>
<!-- \\App\\Service\\ArticleService -->
<g id="node32" class="node">
<title>\\App\\Service\\ArticleService</title>
<polygon fill="none" stroke="#000000" points="657.6667,-482 546.6667,-482 546.6667,-446 657.6667,-446 657.6667,-482"/>
<text text-anchor="middle" x="602.1667" y="-461.2" font-family="Courier,monospace" font-size="11.00" fill="#000000">ArticleService</text>
</g>
<!-- \\App\\Service\\CommentService -->
<g id="node33" class="node">
<title>\\App\\Service\\CommentService</title>
<polygon fill="none" stroke="#000000" points="657.6667,-428 546.6667,-428 546.6667,-392 657.6667,-392 657.6667,-428"/>
<text text-anchor="middle" x="602.1667" y="-407.2" font-family="Courier,monospace" font-size="11.00" fill="#000000">CommentService</text>
</g>
<!-- \\App\\Service\\UserDataService -->
<g id="node34" class="node">
<title>\\App\\Service\\UserDataService</title>
<polygon fill="none" stroke="#000000" points="661.1667,-374 543.1667,-374 543.1667,-338 661.1667,-338 661.1667,-374"/>
<text text-anchor="middle" x="602.1667" y="-353.2" font-family="Courier,monospace" font-size="11.00" fill="#000000">UserDataService</text>
</g>
<!-- \\App\\Service\\UserService -->
<g id="node35" class="node">
<title>\\App\\Service\\UserService</title>
<polygon fill="none" stroke="#000000" points="647.6667,-320 556.6667,-320 556.6667,-284 647.6667,-284 647.6667,-320"/>
<text text-anchor="middle" x="602.1667" y="-299.2" font-family="Courier,monospace" font-size="11.00" fill="#000000">UserService</text>
</g>
</g>
</svg>
